<?xml version="1.0" standalone="no"?>
<!DOCTYPE svg PUBLIC "-//W3C//DTD SVG 20010904//EN"
 "http://www.w3.org/TR/2001/REC-SVG-20010904/DTD/svg10.dtd">
<svg version="1.0" xmlns="http://www.w3.org/2000/svg"
 width="700.000000pt" height="142.000000pt" viewBox="0 0 700.000000 142.000000"
 preserveAspectRatio="xMidYMid meet">

<g transform="translate(0.000000,142.000000) scale(0.100000,-0.100000)"
fill="#000000" stroke="none">
<path d="M1133 1250 c-125 -26 -197 -108 -198 -225 0 -141 115 -233 279 -223
71 5 121 22 164 58 22 18 22 20 7 50 -8 16 -17 30 -20 30 -2 0 -26 -14 -54
-31 -42 -27 -60 -31 -114 -31 -111 0 -187 60 -187 149 0 83 84 153 185 153 55
0 120 -26 149 -59 26 -29 33 -27 46 14 15 44 7 55 -64 89 -59 29 -132 39 -193
26z"/>
<path d="M207 1241 c-17 -6 -17 -8 -3 -20 14 -12 16 -43 16 -218 l0 -204 38 3
37 3 5 154 5 154 143 -157 c112 -122 149 -156 168 -156 29 0 60 25 44 35 -6 4
-10 84 -10 211 l0 204 -35 0 c-29 0 -35 -4 -36 -22 0 -13 -1 -83 -2 -156 -1
-72 -5 -131 -8 -130 -6 3 -186 199 -254 276 -29 33 -65 40 -108 23z"/>
<path d="M1670 1122 c0 -84 5 -146 15 -178 45 -154 253 -195 362 -71 44 50 53
91 53 245 l0 132 -40 0 -40 0 0 -141 c0 -112 -3 -146 -16 -169 -24 -40 -65
-60 -123 -60 -44 0 -56 5 -89 34 l-37 34 -3 151 -3 151 -40 0 -39 0 0 -128z"/>
<path d="M183 593 c-10 -3 -13 -60 -13 -233 l0 -228 65 -7 c198 -22 307 65
306 244 0 100 -45 174 -126 212 -30 14 -63 18 -130 18 -50 0 -96 -3 -102 -6z
m203 -137 c31 -31 34 -40 34 -90 0 -76 -14 -102 -66 -122 -67 -25 -70 -21 -72
98 -1 139 1 148 39 148 22 0 41 -10 65 -34z"/>
<path d="M739 573 c-1 -33 -1 -425 0 -435 1 -5 69 -8 151 -8 l150 0 0 55 0 55
-95 0 -95 0 0 35 c0 39 -4 37 95 39 l70 1 3 53 3 52 -40 1 c-131 3 -126 1
-126 34 0 33 -4 32 113 34 l72 1 0 55 0 55 -150 0 -150 0 -1 -27z"/>
<path d="M1291 583 c-44 -22 -71 -67 -71 -121 0 -64 29 -98 117 -139 80 -37
97 -58 68 -79 -28 -21 -65 -17 -114 11 -24 14 -45 24 -46 23 -1 -2 -15 -23
-30 -47 l-28 -45 28 -22 c80 -63 236 -56 299 15 13 15 21 40 23 79 6 83 -16
112 -117 159 -54 26 -79 43 -78 53 5 24 73 25 120 1 l40 -19 23 51 c13 28 22
54 19 58 -2 4 -25 14 -51 23 -61 21 -158 20 -202 -1z"/>
<path d="M1739 588 c-3 -47 -4 -435 -1 -445 3 -8 24 -13 58 -13 44 0 54 3 55
18 1 22 1 412 0 435 -1 14 -11 17 -56 17 -37 0 -55 -4 -56 -12z"/>
<path d="M2173 584 c-77 -38 -115 -105 -121 -213 -5 -89 8 -139 51 -188 50
-57 79 -65 215 -57 l117 7 0 136 -1 136 -99 0 -100 0 -3 -52 -3 -53 45 0 c42
0 46 -2 46 -23 0 -16 -9 -28 -25 -35 -41 -19 -64 -14 -96 17 -26 26 -29 36
-29 91 0 126 60 169 169 120 24 -11 45 -19 45 -18 1 2 11 24 23 50 l22 46 -22
15 c-61 39 -176 49 -234 21z"/>
<path d="M2639 593 c-1 -11 -1 -401 0 -435 1 -27 3 -28 56 -28 l55 0 0 118 0
117 63 -115 64 -115 61 -3 62 -3 0 236 0 235 -55 0 -54 0 -3 -121 -3 -121 -63
121 -63 121 -60 0 c-32 0 -59 -3 -60 -7z"/>
<path d="M6690 569 c-138 -42 -191 -227 -104 -361 47 -72 156 -104 255 -74 86
26 90 31 93 130 l2 86 -28 1 c-16 1 -35 2 -43 2 -82 0 -86 -2 -83 -30 2 -19
10 -29 23 -31 60 -9 65 -12 65 -43 0 -25 -6 -32 -37 -46 -45 -18 -119 -12
-158 13 -39 25 -59 71 -59 134 0 75 23 116 81 142 52 23 124 19 154 -8 21 -19
58 -15 73 8 12 19 -1 33 -58 64 -36 20 -130 27 -176 13z"/>
<path d="M3220 535 l0 -35 70 0 70 0 0 -185 0 -185 35 0 35 0 0 185 0 184 73
3 72 3 3 33 3 32 -180 0 -181 0 0 -35z"/>
<path d="M3750 350 l0 -220 35 0 35 0 0 95 0 96 103 -3 102 -3 1 -90 2 -90 36
-3 36 -3 0 220 0 221 -35 0 c-39 0 -37 7 -37 -107 l0 -73 -104 0 -104 0 0 90
0 90 -35 0 -35 0 0 -220z"/>
<path d="M4320 351 l0 -221 38 0 37 0 -1 217 -1 218 -36 3 -37 3 0 -220z"/>
<path d="M4620 350 l0 -220 35 0 35 0 0 145 c0 80 3 145 8 144 4 0 54 -65 111
-145 92 -126 108 -144 133 -144 l28 0 0 220 0 220 -35 0 -34 0 -3 -147 -3
-148 -109 148 c-96 130 -112 147 -137 147 l-29 0 0 -220z"/>
<path d="M5200 350 l0 -220 35 0 35 0 0 91 0 91 97 -91 c97 -90 98 -91 148
-91 l50 1 -118 111 -117 111 112 108 113 108 -48 1 c-47 0 -51 -2 -140 -85
l-92 -85 -3 85 -3 85 -34 0 -35 0 0 -220z"/>
<path d="M5700 350 l0 -220 35 0 35 0 0 220 0 220 -35 0 -35 0 0 -220z"/>
<path d="M5990 351 l0 -221 35 0 34 0 3 151 3 151 110 -151 c95 -130 114 -151
138 -151 l27 0 0 220 0 220 -35 0 -34 0 -3 -147 -3 -146 -105 144 c-94 128
-109 144 -138 147 l-32 3 0 -220z"/>
</g>
</svg>
