<?xml version="1.0" encoding="UTF-8"?>
<!DOCTYPE svg PUBLIC "-//W3C//DTD SVG 1.1//EN" "http://www.w3.org/Graphics/SVG/1.1/DTD/svg11.dtd">
<svg xmlns="http://www.w3.org/2000/svg" version="1.1" width="64px" height="64px" style="shape-rendering:geometricPrecision; text-rendering:geometricPrecision; image-rendering:optimizeQuality; fill-rule:evenodd; clip-rule:evenodd" xmlns:xlink="http://www.w3.org/1999/xlink">
<g><path style="opacity:0.235" fill="#7a3653" d="M 25.5,8.5 C 25.1667,8.5 24.8333,8.5 24.5,8.5C 24.5,7.16667 24.5,5.83333 24.5,4.5C 19.1667,4.5 13.8333,4.5 8.5,4.5C 8.5,5.83333 8.5,7.16667 8.5,8.5C 8.16667,8.5 7.83333,8.5 7.5,8.5C 7.5,6.83333 7.5,5.16667 7.5,3.5C 13.5,3.5 19.5,3.5 25.5,3.5C 25.5,5.16667 25.5,6.83333 25.5,8.5 Z"/></g>
<g><path style="opacity:0.235" fill="#813857" d="M 55.5,8.5 C 55.5,9.83333 55.5,11.1667 55.5,12.5C 54.5655,11.4324 54.2322,10.099 54.5,8.5C 54.5,7.16667 54.5,5.83333 54.5,4.5C 49.1667,4.5 43.8333,4.5 38.5,4.5C 38.5,5.83333 38.5,7.16667 38.5,8.5C 38.1667,8.5 37.8333,8.5 37.5,8.5C 37.5,6.83333 37.5,5.16667 37.5,3.5C 43.5,3.5 49.5,3.5 55.5,3.5C 55.5,5.16667 55.5,6.83333 55.5,8.5 Z"/></g>
<g><path style="opacity:1" fill="#000000" d="M 24.5,8.5 C 20.5,8.5 16.5,8.5 12.5,8.5C 11.1667,8.5 9.83333,8.5 8.5,8.5C 8.5,7.16667 8.5,5.83333 8.5,4.5C 13.8333,4.5 19.1667,4.5 24.5,4.5C 24.5,5.83333 24.5,7.16667 24.5,8.5 Z"/></g>
<g><path style="opacity:1" fill="#000000" d="M 54.5,8.5 C 50.5,8.5 46.5,8.5 42.5,8.5C 41.1667,8.5 39.8333,8.5 38.5,8.5C 38.5,7.16667 38.5,5.83333 38.5,4.5C 43.8333,4.5 49.1667,4.5 54.5,4.5C 54.5,5.83333 54.5,7.16667 54.5,8.5 Z"/></g>
<g><path style="opacity:1" fill="#0e0d0d" d="M 7.5,8.5 C 7.5,9.83333 7.5,11.1667 7.5,12.5C 6.16667,12.5 4.83333,12.5 3.5,12.5C 3.5,11.1667 3.5,9.83333 3.5,8.5C 4.83333,8.5 6.16667,8.5 7.5,8.5 Z"/></g>
<g><path style="opacity:1" fill="#efe1e7" d="M 7.5,8.5 C 7.83333,8.5 8.16667,8.5 8.5,8.5C 9.83333,8.5 11.1667,8.5 12.5,8.5C 12.5,9.83333 12.5,11.1667 12.5,12.5C 10.8333,12.5 9.16667,12.5 7.5,12.5C 7.5,11.1667 7.5,9.83333 7.5,8.5 Z"/></g>
<g><path style="opacity:1" fill="#fc529e" d="M 12.5,8.5 C 16.5,8.5 20.5,8.5 24.5,8.5C 24.5,9.83333 24.5,11.1667 24.5,12.5C 25.8333,12.5 27.1667,12.5 28.5,12.5C 28.5,14.1667 28.5,15.8333 28.5,17.5C 30.7354,17.7947 32.7354,17.4614 34.5,16.5C 35.8333,16.5 37.1667,16.5 38.5,16.5C 38.5,15.1667 38.5,13.8333 38.5,12.5C 39.8333,12.5 41.1667,12.5 42.5,12.5C 42.5,11.1667 42.5,9.83333 42.5,8.5C 46.5,8.5 50.5,8.5 54.5,8.5C 54.2322,10.099 54.5655,11.4324 55.5,12.5C 56.8333,12.5 58.1667,12.5 59.5,12.5C 59.5,20.8333 59.5,29.1667 59.5,37.5C 57.8333,37.5 56.1667,37.5 54.5,37.5C 54.5,38.8333 54.5,40.1667 54.5,41.5C 53.1667,41.5 51.8333,41.5 50.5,41.5C 50.5,42.8333 50.5,44.1667 50.5,45.5C 47.8333,45.5 45.1667,45.5 42.5,45.5C 42.5,47.1667 42.5,48.8333 42.5,50.5C 39.8333,50.5 37.1667,50.5 34.5,50.5C 34.5,51.8333 34.5,53.1667 34.5,54.5C 32.5,54.5 30.5,54.5 28.5,54.5C 28.5,53.1667 28.5,51.8333 28.5,50.5C 25.8333,50.5 23.1667,50.5 20.5,50.5C 20.5,48.8333 20.5,47.1667 20.5,45.5C 17.8333,45.5 15.1667,45.5 12.5,45.5C 12.5,44.1667 12.5,42.8333 12.5,41.5C 11.1667,41.5 9.83333,41.5 8.5,41.5C 8.5,40.1667 8.5,38.8333 8.5,37.5C 6.83333,37.5 5.16667,37.5 3.5,37.5C 3.5,30.5 3.5,23.5 3.5,16.5C 4.83333,16.5 6.16667,16.5 7.5,16.5C 7.5,15.1667 7.5,13.8333 7.5,12.5C 9.16667,12.5 10.8333,12.5 12.5,12.5C 12.5,11.1667 12.5,9.83333 12.5,8.5 Z"/></g>
<g><path style="opacity:1" fill="#020001" d="M 24.5,8.5 C 24.8333,8.5 25.1667,8.5 25.5,8.5C 26.5,8.5 27.5,8.5 28.5,8.5C 28.5,9.83333 28.5,11.1667 28.5,12.5C 27.1667,12.5 25.8333,12.5 24.5,12.5C 24.5,11.1667 24.5,9.83333 24.5,8.5 Z"/></g>
<g><path style="opacity:1" fill="#020202" d="M 34.5,8.5 C 35.5,8.5 36.5,8.5 37.5,8.5C 37.8333,8.5 38.1667,8.5 38.5,8.5C 38.5,9.83333 38.5,11.1667 38.5,12.5C 37.1667,12.5 35.8333,12.5 34.5,12.5C 34.5,11.1667 34.5,9.83333 34.5,8.5 Z"/></g>
<g><path style="opacity:1" fill="#fdfdfd" d="M 38.5,8.5 C 39.8333,8.5 41.1667,8.5 42.5,8.5C 42.5,9.83333 42.5,11.1667 42.5,12.5C 41.1667,12.5 39.8333,12.5 38.5,12.5C 38.5,11.1667 38.5,9.83333 38.5,8.5 Z"/></g>
<g><path style="opacity:1" fill="#0d0307" d="M 55.5,8.5 C 56.8333,8.5 58.1667,8.5 59.5,8.5C 59.5,9.83333 59.5,11.1667 59.5,12.5C 58.1667,12.5 56.8333,12.5 55.5,12.5C 55.5,11.1667 55.5,9.83333 55.5,8.5 Z"/></g>
<g><path style="opacity:1" fill="#030202" d="M -0.5,12.5 C 0.833333,12.5 2.16667,12.5 3.5,12.5C 3.5,13.8333 3.5,15.1667 3.5,16.5C 3.5,23.5 3.5,30.5 3.5,37.5C 2.16667,37.5 0.833333,37.5 -0.5,37.5C -0.5,29.1667 -0.5,20.8333 -0.5,12.5 Z"/></g>
<g><path style="opacity:1" fill="#ededed" d="M 3.5,12.5 C 4.83333,12.5 6.16667,12.5 7.5,12.5C 7.5,13.8333 7.5,15.1667 7.5,16.5C 6.16667,16.5 4.83333,16.5 3.5,16.5C 3.5,15.1667 3.5,13.8333 3.5,12.5 Z"/></g>
<g><path style="opacity:1" fill="#614651" d="M 28.5,8.5 C 29.4345,9.56764 29.7678,10.901 29.5,12.5C 30.8333,12.5 32.1667,12.5 33.5,12.5C 33.2322,10.901 33.5655,9.56764 34.5,8.5C 34.5,9.83333 34.5,11.1667 34.5,12.5C 34.5,13.8333 34.5,15.1667 34.5,16.5C 32.7354,17.4614 30.7354,17.7947 28.5,17.5C 28.5,15.8333 28.5,14.1667 28.5,12.5C 28.5,11.1667 28.5,9.83333 28.5,8.5 Z"/></g>
<g><path style="opacity:1" fill="#000000" d="M 29.5,13.5 C 30.8333,13.5 32.1667,13.5 33.5,13.5C 33.5,14.5 33.5,15.5 33.5,16.5C 32.1667,16.5 30.8333,16.5 29.5,16.5C 29.5,15.5 29.5,14.5 29.5,13.5 Z"/></g>
<g><path style="opacity:1" fill="#f3f2f2" d="M 34.5,12.5 C 35.8333,12.5 37.1667,12.5 38.5,12.5C 38.5,13.8333 38.5,15.1667 38.5,16.5C 37.1667,16.5 35.8333,16.5 34.5,16.5C 34.5,15.1667 34.5,13.8333 34.5,12.5 Z"/></g>
<g><path style="opacity:1" fill="#020001" d="M 59.5,12.5 C 60.8333,12.5 62.1667,12.5 63.5,12.5C 63.5,20.8333 63.5,29.1667 63.5,37.5C 62.1667,37.5 60.8333,37.5 59.5,37.5C 59.5,29.1667 59.5,20.8333 59.5,12.5 Z"/></g>
<g><path style="opacity:1" fill="#62203e" d="M -0.5,38.5 C -0.5,38.1667 -0.5,37.8333 -0.5,37.5C 0.833333,37.5 2.16667,37.5 3.5,37.5C 5.16667,37.5 6.83333,37.5 8.5,37.5C 8.5,38.8333 8.5,40.1667 8.5,41.5C 9.83333,41.5 11.1667,41.5 12.5,41.5C 12.5,42.8333 12.5,44.1667 12.5,45.5C 15.1667,45.5 17.8333,45.5 20.5,45.5C 20.5,47.1667 20.5,48.8333 20.5,50.5C 20.5,51.8333 20.5,53.1667 20.5,54.5C 19.5655,53.4324 19.2322,52.099 19.5,50.5C 16.8333,50.5 14.1667,50.5 11.5,50.5C 11.5,49.1667 11.5,47.8333 11.5,46.5C 10.1667,46.5 8.83333,46.5 7.5,46.5C 7.5,45.1667 7.5,43.8333 7.5,42.5C 6.16667,42.5 4.83333,42.5 3.5,42.5C 3.5,41.1667 3.5,39.8333 3.5,38.5C 2.16667,38.5 0.833333,38.5 -0.5,38.5 Z"/></g>
<g><path style="opacity:1" fill="#000000" d="M 4.5,38.5 C 5.5,38.5 6.5,38.5 7.5,38.5C 7.5,39.5 7.5,40.5 7.5,41.5C 6.5,41.5 5.5,41.5 4.5,41.5C 4.5,40.5 4.5,39.5 4.5,38.5 Z"/></g>
<g><path style="opacity:1" fill="#64203f" d="M 59.5,37.5 C 60.8333,37.5 62.1667,37.5 63.5,37.5C 63.5,37.8333 63.5,38.1667 63.5,38.5C 62.1667,38.5 60.8333,38.5 59.5,38.5C 59.5,39.8333 59.5,41.1667 59.5,42.5C 58.1667,42.5 56.8333,42.5 55.5,42.5C 55.5,43.8333 55.5,45.1667 55.5,46.5C 54.1667,46.5 52.8333,46.5 51.5,46.5C 51.5,47.8333 51.5,49.1667 51.5,50.5C 48.8333,50.5 46.1667,50.5 43.5,50.5C 43.7678,52.099 43.4345,53.4324 42.5,54.5C 42.5,53.1667 42.5,51.8333 42.5,50.5C 42.5,48.8333 42.5,47.1667 42.5,45.5C 45.1667,45.5 47.8333,45.5 50.5,45.5C 50.5,44.1667 50.5,42.8333 50.5,41.5C 51.8333,41.5 53.1667,41.5 54.5,41.5C 54.5,40.1667 54.5,38.8333 54.5,37.5C 56.1667,37.5 57.8333,37.5 59.5,37.5 Z"/></g>
<g><path style="opacity:1" fill="#000000" d="M 55.5,38.5 C 56.5,38.5 57.5,38.5 58.5,38.5C 58.5,39.5 58.5,40.5 58.5,41.5C 57.5,41.5 56.5,41.5 55.5,41.5C 55.5,40.5 55.5,39.5 55.5,38.5 Z"/></g>
<g><path style="opacity:1" fill="#000000" d="M 8.5,42.5 C 9.5,42.5 10.5,42.5 11.5,42.5C 11.5,43.5 11.5,44.5 11.5,45.5C 10.5,45.5 9.5,45.5 8.5,45.5C 8.5,44.5 8.5,43.5 8.5,42.5 Z"/></g>
<g><path style="opacity:1" fill="#000000" d="M 51.5,42.5 C 52.5,42.5 53.5,42.5 54.5,42.5C 54.5,43.5 54.5,44.5 54.5,45.5C 53.5,45.5 52.5,45.5 51.5,45.5C 51.5,44.5 51.5,43.5 51.5,42.5 Z"/></g>
<g><path style="opacity:1" fill="#000000" d="M 12.5,46.5 C 14.8333,46.5 17.1667,46.5 19.5,46.5C 19.5,47.5 19.5,48.5 19.5,49.5C 17.1667,49.5 14.8333,49.5 12.5,49.5C 12.5,48.5 12.5,47.5 12.5,46.5 Z"/></g>
<g><path style="opacity:1" fill="#000000" d="M 43.5,46.5 C 45.8333,46.5 48.1667,46.5 50.5,46.5C 50.5,47.5 50.5,48.5 50.5,49.5C 48.1667,49.5 45.8333,49.5 43.5,49.5C 43.5,48.5 43.5,47.5 43.5,46.5 Z"/></g>
<g><path style="opacity:1" fill="#010000" d="M 20.5,50.5 C 23.1667,50.5 25.8333,50.5 28.5,50.5C 28.5,51.8333 28.5,53.1667 28.5,54.5C 25.8333,54.5 23.1667,54.5 20.5,54.5C 20.5,53.1667 20.5,51.8333 20.5,50.5 Z"/></g>
<g><path style="opacity:1" fill="#010000" d="M 42.5,50.5 C 42.5,51.8333 42.5,53.1667 42.5,54.5C 39.8333,54.5 37.1667,54.5 34.5,54.5C 34.5,53.1667 34.5,51.8333 34.5,50.5C 37.1667,50.5 39.8333,50.5 42.5,50.5 Z"/></g>
<g><path style="opacity:1" fill="#220f16" d="M 28.5,54.5 C 30.5,54.5 32.5,54.5 34.5,54.5C 34.5,56.1667 34.5,57.8333 34.5,59.5C 32.5,59.5 30.5,59.5 28.5,59.5C 28.5,57.8333 28.5,56.1667 28.5,54.5 Z"/></g>
</svg>
