<?xml version="1.0" standalone="no"?>
<!DOCTYPE svg PUBLIC "-//W3C//DTD SVG 20010904//EN"
 "http://www.w3.org/TR/2001/REC-SVG-20010904/DTD/svg10.dtd">
<svg version="1.0" xmlns="http://www.w3.org/2000/svg"
 width="531.000000pt" height="470.000000pt" viewBox="0 0 531.000000 470.000000"
 preserveAspectRatio="xMidYMid meet">

<g transform="translate(0.000000,470.000000) scale(0.100000,-0.100000)"
fill="#000000" stroke="none">
<path d="M570 4264 c-30 -8 -73 -25 -95 -39 -58 -34 -132 -117 -163 -183 l-27
-57 0 -500 0 -500 27 -58 c52 -110 134 -182 246 -217 56 -18 94 -20 316 -20
l251 -1 387 -517 387 -518 -15 -51 c-13 -43 -14 -127 -12 -529 l3 -479 29 -60
c37 -75 120 -159 188 -190 29 -13 82 -29 118 -34 83 -14 812 -14 904 -1 169
25 304 155 335 325 15 79 15 851 0 931 -23 123 -112 238 -227 292 l-57 27
-477 5 -477 5 -305 407 -306 408 52 26 c67 34 139 109 174 181 26 54 29 69 34
213 l5 155 797 3 796 2 4 -147 c4 -126 8 -157 28 -208 32 -83 132 -182 215
-216 l60 -24 490 0 490 0 67 32 c120 57 201 157 227 281 15 73 15 882 0 954
-33 153 -154 274 -307 307 -67 14 -898 15 -960 1 -75 -18 -135 -52 -198 -115
-90 -89 -107 -139 -112 -328 l-4 -147 -796 2 -797 3 -5 155 c-5 143 -8 159
-33 212 -51 105 -147 183 -262 212 -85 23 -912 22 -995 0z"/>
</g>
</svg>
